<svg xmlns="http://www.w3.org/2000/svg" xmlns:svg="http://www.w3.org/2000/svg" id="SVGRoot" width="500" height="500" version="1.1" viewBox="0 0 500 500"><metadata id="metadata4488"/><g id="layer1"><path style="fill:#999;fill-opacity:1;stroke:#222a31;stroke-width:3.77952743;stroke-linecap:butt;stroke-linejoin:miter;stroke-miterlimit:4;stroke-dasharray:none;stroke-opacity:1" id="path5681" d="m 374.68134,75.505647 c 0,0 5.30652,-4.324391 8.10753,-7.12731 3.00233,-3.004301 6.3812,-13.818824 6.3812,-13.818824 0,0 -22.88616,1.019412 -55.94935,-0.169957 -50.68395,-1.823235 -124.58379,-6.09979 -171.15006,-5.795375 -27.38844,0.179066 -57.86857,2.887763 -90.352527,4.278215 -23.471923,1.004674 -54.67306,0.836587 -54.67306,0.836587 0,0 0.09528,5.77051 0.8694,8.523433 0.754503,2.683384 1.804583,5.416564 3.615163,7.562678 1.520563,1.802397 5.797762,4.119757 5.797762,4.119757 z"/><path style="fill:none;stroke:#222a31;stroke-width:1.29999983;stroke-linecap:round;stroke-linejoin:miter;stroke-miterlimit:4;stroke-dasharray:none;stroke-opacity:1" id="path5709" d="m 30.64783,58.672949 3.851955,9.156021"/><path style="fill:#b3b3b3;fill-opacity:1;stroke:#222a31;stroke-width:3.77952743;stroke-linecap:butt;stroke-linejoin:miter;stroke-miterlimit:4;stroke-dasharray:none;stroke-opacity:1" id="path5054" d="m 374.20716,439.84967 c 0,0 -15.83126,5.93455 -43.54223,6.98437 -25.82601,0.97843 -63.3319,-2.94266 -71.83055,-2.43476 -19.41256,1.16012 -58.85271,-0.0967 -92.6994,0.29944 -20.28859,0.23735 -16.67534,-3.03991 -36.63235,-2.77529 -22.86679,0.30322 -46.156924,2.10268 -63.720302,2.10268 -13.428699,0 -32.228922,-4.17644 -32.228922,-4.17644 0,0 -4.363416,-0.46715 -3.488066,-4.67456 1.388755,-6.675 -0.337291,-19.13745 -0.650974,-31.51674 -0.319097,-12.59299 15.157724,-24.33724 14.882061,-33.26086 -0.103752,-3.36248 -2.044781,-4.91245 -2.159855,-8.49332 -0.842467,-26.21827 -2.324472,-31.49727 -1.437563,-64.12083 0.149966,-5.51452 2.063287,-13.83341 2.343189,-20.93497 1.187576,-30.13109 1.467105,-69.24594 0.780615,-91.41665 -0.276774,-8.93901 14.268148,-19.26079 13.747185,-27.58801 -0.134016,-2.1405 -1.878953,-8.24698 -2.072439,-10.34071 -1.459199,-15.78951 -2.682588,-21.11987 -5.604301,-33.44163 -1.775576,-7.48804 -6.583651,-4.75775 -8.121784,-10.78288 -1.526164,-5.978307 -6.683363,-12.216418 -9.759406,-17.799775 -3.411699,-6.192586 -4.68467,-11.43187 -4.68467,-11.43187 0,0 141.956172,-3.425817 211.136822,-2.776498 46.65199,0.437859 136.21712,4.202331 136.21712,4.202331 0,0 -0.46915,3.460854 -6.10672,9.38109 -7.67065,8.055295 -12.49568,24.296522 -15.92811,36.127542 -2.83093,9.75787 -3.83526,4.81088 -6.96007,14.99617 -3.28674,10.71276 -1.07884,13.79853 -3.02034,26.84437 -1.42376,9.5664 11.80611,13.26774 10.78824,23.62512 -2.56207,26.06955 -5.38627,61.11896 -3.48031,88.65285 0.35882,5.18329 2.84906,11.61303 3.02121,16.69477 0.86668,25.58004 -1.25921,49.97359 -0.0799,70.73086 0.2267,3.99025 -3.88402,7.21391 -3.53838,10.94033 0.57019,6.14697 15.15917,13.93826 17.95727,22.00334 7.36938,21.24088 6.87303,44.38053 6.87303,44.38053 z"/><path style="fill:#b3b3b3;fill-opacity:1;stroke:none;stroke-width:1px;stroke-linecap:butt;stroke-linejoin:miter;stroke-opacity:1" id="path6225" d="m 354.08535,269.73393 -3.0495,-17.28474 -4.87921,-7.05793 -7.92872,1.72847 -14.48515,11.66721 -10.36832,24.4867 -3.81187,34.85755 3.6594,49.98169 12.65544,65.39392 7.62377,27.51153 26.68317,-7.20197 82.33664,-24.34267 48.18218,-17.57282 -10.67327,-9.07448 -11.58812,-11.09103 -17.99208,-40.61914 -9.60594,-46.52474 -2.13465,-48.5413 -52.14654,9.21853 z"/><path id="path5711" d="m 38.609512,58.332206 3.851931,9.156021" style="fill:none;stroke:#222a31;stroke-width:1.29999983;stroke-linecap:round;stroke-linejoin:miter;stroke-miterlimit:4;stroke-dasharray:none;stroke-opacity:1"/><path style="fill:none;stroke:#222a31;stroke-width:1.29999983;stroke-linecap:round;stroke-linejoin:miter;stroke-miterlimit:4;stroke-dasharray:none;stroke-opacity:1" id="path5713" d="m 46.256896,57.991441 3.851933,9.156032"/><path id="path5715" d="m 54.323339,58.105048 3.851932,9.156022" style="fill:none;stroke:#222a31;stroke-width:1.29999983;stroke-linecap:round;stroke-linejoin:miter;stroke-miterlimit:4;stroke-dasharray:none;stroke-opacity:1"/><path style="fill:none;stroke:#222a31;stroke-width:1.29999983;stroke-linecap:round;stroke-linejoin:miter;stroke-miterlimit:4;stroke-dasharray:none;stroke-opacity:1" id="path5717" d="m 62.389757,58.105048 3.851932,9.156022"/><path id="path5719" d="m 70.456175,57.764295 3.851943,9.156009" style="fill:none;stroke:#222a31;stroke-width:1.29999983;stroke-linecap:round;stroke-linejoin:miter;stroke-miterlimit:4;stroke-dasharray:none;stroke-opacity:1"/><path style="fill:none;stroke:#222a31;stroke-width:1.29999983;stroke-linecap:round;stroke-linejoin:miter;stroke-miterlimit:4;stroke-dasharray:none;stroke-opacity:1" id="path5721" d="m 78.417843,57.764295 3.851944,9.156009"/><path id="path5723" d="m 86.903305,57.309957 3.851944,9.156021" style="fill:none;stroke:#222a31;stroke-width:1.29999983;stroke-linecap:round;stroke-linejoin:miter;stroke-miterlimit:4;stroke-dasharray:none;stroke-opacity:1"/><path style="fill:none;stroke:#222a31;stroke-width:1.29999983;stroke-linecap:round;stroke-linejoin:miter;stroke-miterlimit:4;stroke-dasharray:none;stroke-opacity:1" id="path5725" d="m 95.807811,56.742034 3.851931,9.156021"/><path id="path5727" d="m 104.81707,56.969191 3.85191,9.156033" style="fill:none;stroke:#222a31;stroke-width:1.29999983;stroke-linecap:round;stroke-linejoin:miter;stroke-miterlimit:4;stroke-dasharray:none;stroke-opacity:1"/><path style="fill:none;stroke:#222a31;stroke-width:1.29999983;stroke-linecap:round;stroke-linejoin:miter;stroke-miterlimit:4;stroke-dasharray:none;stroke-opacity:1" id="path5729" d="m 114.03582,56.401291 3.85196,9.15601"/><path id="path5731" d="m 123.77838,56.287696 3.85195,9.156008" style="fill:none;stroke:#222a31;stroke-width:1.29999983;stroke-linecap:round;stroke-linejoin:miter;stroke-miterlimit:4;stroke-dasharray:none;stroke-opacity:1"/><path style="fill:none;stroke:#222a31;stroke-width:1.29999983;stroke-linecap:round;stroke-linejoin:miter;stroke-miterlimit:4;stroke-dasharray:none;stroke-opacity:1" id="path5733" d="m 133.6257,56.060526 3.85195,9.156022"/><path id="path5735" d="m 143.89206,56.060526 3.85196,9.156022" style="fill:none;stroke:#222a31;stroke-width:1.29999983;stroke-linecap:round;stroke-linejoin:miter;stroke-miterlimit:4;stroke-dasharray:none;stroke-opacity:1"/><path style="fill:none;stroke:#222a31;stroke-width:1.29999983;stroke-linecap:round;stroke-linejoin:miter;stroke-miterlimit:4;stroke-dasharray:none;stroke-opacity:1" id="path5737" d="m 152.90132,55.833357 3.85195,9.156044"/><path id="path5739" d="m 162.32961,55.492615 3.85195,9.156032" style="fill:none;stroke:#222a31;stroke-width:1.29999983;stroke-linecap:round;stroke-linejoin:miter;stroke-miterlimit:4;stroke-dasharray:none;stroke-opacity:1"/><path style="fill:none;stroke:#222a31;stroke-width:1.29999983;stroke-linecap:round;stroke-linejoin:miter;stroke-miterlimit:4;stroke-dasharray:none;stroke-opacity:1" id="path5741" d="m 171.33888,55.265457 3.85194,9.156021"/><path id="path5743" d="m 180.66241,55.719795 3.85194,9.156021" style="fill:none;stroke:#222a31;stroke-width:1.29999983;stroke-linecap:round;stroke-linejoin:miter;stroke-miterlimit:4;stroke-dasharray:none;stroke-opacity:1"/><path style="fill:none;stroke:#222a31;stroke-width:1.29999983;stroke-linecap:round;stroke-linejoin:miter;stroke-miterlimit:4;stroke-dasharray:none;stroke-opacity:1" id="path5745" d="m 189.14788,55.606211 3.85193,9.156009"/><path id="path5747" d="m 197.63334,55.606211 3.85194,9.156009" style="fill:none;stroke:#222a31;stroke-width:1.29999983;stroke-linecap:round;stroke-linejoin:miter;stroke-miterlimit:4;stroke-dasharray:none;stroke-opacity:1"/><path style="fill:none;stroke:#222a31;stroke-width:1.29999983;stroke-linecap:round;stroke-linejoin:miter;stroke-miterlimit:4;stroke-dasharray:none;stroke-opacity:1" id="path5749" d="m 206.85211,55.719795 3.85192,9.156021"/><path id="path5751" d="m 216.38515,56.174099 3.85191,9.156056" style="fill:none;stroke:#222a31;stroke-width:1.29999983;stroke-linecap:round;stroke-linejoin:miter;stroke-miterlimit:4;stroke-dasharray:none;stroke-opacity:1"/><path style="fill:none;stroke:#222a31;stroke-width:1.29999983;stroke-linecap:round;stroke-linejoin:miter;stroke-miterlimit:4;stroke-dasharray:none;stroke-opacity:1" id="path5762" d="m 225.28966,56.174099 3.85194,9.156056"/><path id="path5764" d="m 234.2989,56.060526 3.85194,9.156022" style="fill:none;stroke:#222a31;stroke-width:1.29999983;stroke-linecap:round;stroke-linejoin:miter;stroke-miterlimit:4;stroke-dasharray:none;stroke-opacity:1"/><path style="fill:none;stroke:#222a31;stroke-width:1.29999983;stroke-linecap:round;stroke-linejoin:miter;stroke-miterlimit:4;stroke-dasharray:none;stroke-opacity:1" id="path5766" d="m 243.20339,56.174099 3.85193,9.156056"/><path id="path5768" d="m 252.21263,56.742034 3.85196,9.156021" style="fill:none;stroke:#222a31;stroke-width:1.29999983;stroke-linecap:round;stroke-linejoin:miter;stroke-miterlimit:4;stroke-dasharray:none;stroke-opacity:1"/><path style="fill:none;stroke:#222a31;stroke-width:1.29999983;stroke-linecap:round;stroke-linejoin:miter;stroke-miterlimit:4;stroke-dasharray:none;stroke-opacity:1" id="path5770" d="m 260.59333,56.742034 3.85194,9.156021"/><path id="path5772" d="m 269.4619,58.348352 3.85194,9.156021" style="fill:none;stroke:#222a31;stroke-width:1.29999983;stroke-linecap:round;stroke-linejoin:miter;stroke-miterlimit:4;stroke-dasharray:none;stroke-opacity:1"/><path style="fill:none;stroke:#222a31;stroke-width:1.29999983;stroke-linecap:round;stroke-linejoin:miter;stroke-miterlimit:4;stroke-dasharray:none;stroke-opacity:1" id="path5774" d="m 268.86928,56.742034 3.85195,9.156021"/><path id="path5776" d="m 277.77377,57.196372 3.85195,9.156033" style="fill:none;stroke:#222a31;stroke-width:1.29999983;stroke-linecap:round;stroke-linejoin:miter;stroke-miterlimit:4;stroke-dasharray:none;stroke-opacity:1"/><path style="fill:none;stroke:#222a31;stroke-width:1.29999983;stroke-linecap:round;stroke-linejoin:miter;stroke-miterlimit:4;stroke-dasharray:none;stroke-opacity:1" id="path5778" d="m 286.25923,57.196372 3.85194,9.156033"/><path id="path5780" d="m 296.10655,58.105048 3.85193,9.156022" style="fill:none;stroke:#222a31;stroke-width:1.29999983;stroke-linecap:round;stroke-linejoin:miter;stroke-miterlimit:4;stroke-dasharray:none;stroke-opacity:1"/><path style="fill:none;stroke:#222a31;stroke-width:1.29999983;stroke-linecap:round;stroke-linejoin:miter;stroke-miterlimit:4;stroke-dasharray:none;stroke-opacity:1" id="path5782" d="m 305.01104,57.877868 3.85196,9.156021"/><path id="path5784" d="m 314.02032,58.105048 3.85193,9.156022" style="fill:none;stroke:#222a31;stroke-width:1.29999983;stroke-linecap:round;stroke-linejoin:miter;stroke-miterlimit:4;stroke-dasharray:none;stroke-opacity:1"/><path style="fill:none;stroke:#222a31;stroke-width:1.29999983;stroke-linecap:round;stroke-linejoin:miter;stroke-miterlimit:4;stroke-dasharray:none;stroke-opacity:1" id="path5786" d="m 229.17807,224.7848 3.40216,7.63948"/><path id="path5788" d="m 228.65466,223.44455 3.40215,7.63948" style="fill:none;stroke:#222a31;stroke-width:1.29999983;stroke-linecap:round;stroke-linejoin:miter;stroke-miterlimit:4;stroke-dasharray:none;stroke-opacity:1"/><path id="path5800" d="m 22.47665,58.900107 3.851933,9.156032" style="fill:none;stroke:#222a31;stroke-width:1.29999983;stroke-linecap:round;stroke-linejoin:miter;stroke-miterlimit:4;stroke-dasharray:none;stroke-opacity:1"/><ellipse style="fill:#45aeb5;fill-opacity:1;stroke:#222a31;stroke-width:7;stroke-linecap:round;stroke-linejoin:round;stroke-miterlimit:4;stroke-dasharray:27.99999932,13.99999968;stroke-dashoffset:0;stroke-opacity:1;paint-order:markers fill stroke" id="path5804" cx="-209.002" cy="387.042" rx="82.313" ry="77.942"/><path style="fill:none;fill-opacity:1;stroke:#eee;stroke-width:7;stroke-linecap:round;stroke-linejoin:round;stroke-miterlimit:4;stroke-dasharray:none;stroke-dashoffset:0;stroke-opacity:1;paint-order:markers fill stroke" id="path5838" d="m -218.16144,432.52113 a 10.904034,11.643658 0 0 1 9.60909,-6.39304 10.904034,11.643658 0 0 1 9.74244,6.15861"/><path id="path5840" d="m -198.62765,432.42695 a 10.904034,11.643658 0 0 1 7.85751,3.32203 10.904034,11.643658 0 0 1 3.27488,8.31907" style="fill:none;fill-opacity:1;stroke:#eee;stroke-width:7;stroke-linecap:round;stroke-linejoin:round;stroke-miterlimit:4;stroke-dasharray:none;stroke-dashoffset:0;stroke-opacity:1;paint-order:markers fill stroke"/><path style="fill:none;fill-opacity:1;stroke:#eee;stroke-width:7;stroke-linecap:round;stroke-linejoin:round;stroke-miterlimit:4;stroke-dasharray:none;stroke-dashoffset:0;stroke-opacity:1;paint-order:markers fill stroke" id="path5842" d="m -231.11102,443.96645 a 10.904034,11.643658 0 0 1 3.90194,-8.82448 10.904034,11.643658 0 0 1 8.82013,-2.55452"/><path style="fill:none;stroke:#eee;stroke-width:6.99999952;stroke-linecap:round;stroke-linejoin:miter;stroke-miterlimit:4;stroke-dasharray:none;stroke-opacity:1" id="path5846" d="M -209.08767,423.89341 V 362.08104"/><path style="fill:#45aeb5;fill-opacity:1;stroke:#eee;stroke-width:3.00623798;stroke-linecap:round;stroke-linejoin:round;stroke-miterlimit:4;stroke-dasharray:none;stroke-dashoffset:0;stroke-opacity:1;paint-order:markers fill stroke" id="path5952" d="m -435.5109,116.71709 a 7.846796,13.568888 0 0 1 -7.82625,13.56884 7.846796,13.568888 0 0 1 -7.86724,-13.4978" transform="matrix(0.7040824,-0.71011828,0.77122381,0.63656409,0,0)"/><path style="fill:#45aeb5;fill-opacity:1;stroke:#eee;stroke-width:2.99999976;stroke-linecap:round;stroke-linejoin:round;stroke-miterlimit:4;stroke-dasharray:none;stroke-opacity:1" id="path5958" d="m -227.54972,394.8061 c 0,0 -4.3391,-3.78964 -6.8999,-7.41862 -2.5607,-3.62896 -7.7307,-14.78976 -7.7307,-14.78976 0,0 11.5902,3.13886 16.7844,5.54668 3.24055,1.50216 8.89585,5.5173 8.89585,5.5173"/><path id="path5962" d="m 173.27612,401.37943 a 7.8409114,13.57887 0 0 1 -7.82038,13.57882 7.8409114,13.57887 0 0 1 -7.86133,-13.50773" transform="matrix(0.69822222,0.71588109,-0.77632832,0.63032875,0,0)" style="fill:#45aeb5;fill-opacity:1;stroke:#eee;stroke-width:3.00621581;stroke-linecap:round;stroke-linejoin:round;stroke-miterlimit:4;stroke-dasharray:none;stroke-dashoffset:0;stroke-opacity:1;paint-order:markers fill stroke"/><path id="path5964" d="m -201.68797,365.91824 c 0,0 4.5978,-3.5265 8.8285,-5.45729 4.2307,-1.9308 16.95,-5.41483 16.95,-5.41483 0,0 -4.672,10.17396 -7.8566,14.62541 -1.9867,2.77708 -6.9724,7.47312 -6.9724,7.47312" style="fill:#45aeb5;fill-opacity:1;stroke:#eee;stroke-width:2.99999976;stroke-linecap:round;stroke-linejoin:round;stroke-miterlimit:4;stroke-dasharray:none;stroke-opacity:1"/><path style="fill:#45aeb5;fill-opacity:1;stroke:#eee;stroke-width:3.00621581;stroke-linecap:round;stroke-linejoin:round;stroke-miterlimit:4;stroke-dasharray:none;stroke-dashoffset:0;stroke-opacity:1;paint-order:markers fill stroke" id="path5966" d="m 201.77112,426.97806 a 7.8409114,13.57887 0 0 1 -7.82039,13.57882 7.8409114,13.57887 0 0 1 -7.86133,-13.50772" transform="matrix(0.69822222,0.71588109,-0.77632832,0.63032875,0,0)"/><path style="fill:#45aeb5;fill-opacity:1;stroke:#eee;stroke-width:2.99999976;stroke-linecap:round;stroke-linejoin:round;stroke-miterlimit:4;stroke-dasharray:none;stroke-opacity:1" id="path5968" d="m -201.66507,402.45282 c 0,0 4.5979,-3.5265 8.8286,-5.45729 4.2307,-1.9308 16.9499,-5.41483 16.9499,-5.41483 0,0 -4.6719,10.17396 -7.8565,14.62541 -1.9868,2.77708 -6.9725,7.47312 -6.9725,7.47312"/><path id="path5974" d="m -200.70141,349.29935 a 8.2353258,12.875122 0 0 1 -8.21377,12.87507 8.2353258,12.875122 0 0 1 -8.25677,-12.80766" transform="matrix(0.99999974,7.2131284e-4,-8.6647235e-4,0.99999962,0,0)" style="fill:#45aeb5;fill-opacity:1;stroke:#eee;stroke-width:2.99999928;stroke-linecap:round;stroke-linejoin:round;stroke-miterlimit:4;stroke-dasharray:none;stroke-dashoffset:0;stroke-opacity:1;paint-order:markers fill stroke"/><path id="path5976" d="m -217.47507,349.29086 c 0,0 0.1739,-5.47811 1.4092,-9.64441 1.2352,-4.16629 6.8477,-15.14773 6.8477,-15.14773 0,0 5.2156,9.9516 6.7388,15.08255 0.9502,3.201 1.4751,9.72147 1.4751,9.72147" style="fill:#45aeb5;fill-opacity:1;stroke:#eee;stroke-width:2.99999976;stroke-linecap:round;stroke-linejoin:round;stroke-miterlimit:4;stroke-dasharray:none;stroke-opacity:1"/><ellipse id="ellipse6004" cx="-453.892" cy="360.568" rx="82.313" ry="77.942" style="fill:#45aeb5;fill-opacity:1;stroke:#222a31;stroke-width:7;stroke-linecap:round;stroke-linejoin:round;stroke-miterlimit:4;stroke-dasharray:27.99999932,13.99999968;stroke-dashoffset:0;stroke-opacity:1;paint-order:markers fill stroke"/><path id="path6006" d="m -218.16144,432.52113 a 10.904034,11.643658 0 0 1 9.60909,-6.39304 10.904034,11.643658 0 0 1 9.74244,6.15861" style="fill:none;fill-opacity:1;stroke:#eee;stroke-width:7;stroke-linecap:round;stroke-linejoin:round;stroke-miterlimit:4;stroke-dasharray:none;stroke-dashoffset:0;stroke-opacity:1;paint-order:markers fill stroke"/><path style="fill:none;fill-opacity:1;stroke:#eee;stroke-width:7;stroke-linecap:round;stroke-linejoin:round;stroke-miterlimit:4;stroke-dasharray:none;stroke-dashoffset:0;stroke-opacity:1;paint-order:markers fill stroke" id="path6008" d="m -198.62765,432.42695 a 10.904034,11.643658 0 0 1 7.85751,3.32203 10.904034,11.643658 0 0 1 3.27488,8.31907"/><path id="path6010" d="m -231.11102,443.96645 a 10.904034,11.643658 0 0 1 3.90194,-8.82448 10.904034,11.643658 0 0 1 8.82013,-2.55452" style="fill:none;fill-opacity:1;stroke:#eee;stroke-width:7;stroke-linecap:round;stroke-linejoin:round;stroke-miterlimit:4;stroke-dasharray:none;stroke-dashoffset:0;stroke-opacity:1;paint-order:markers fill stroke"/><path id="path6012" d="M -209.08767,423.89341 V 362.08104" style="fill:none;stroke:#eee;stroke-width:6.99999952;stroke-linecap:round;stroke-linejoin:miter;stroke-miterlimit:4;stroke-dasharray:none;stroke-opacity:1"/><path id="path6014" d="m -435.5109,116.71709 a 7.846796,13.568888 0 0 1 -7.82625,13.56884 7.846796,13.568888 0 0 1 -7.86724,-13.4978" transform="matrix(0.7040824,-0.71011828,0.77122381,0.63656409,0,0)" style="fill:#45aeb5;fill-opacity:1;stroke:#eee;stroke-width:3.00623798;stroke-linecap:round;stroke-linejoin:round;stroke-miterlimit:4;stroke-dasharray:none;stroke-dashoffset:0;stroke-opacity:1;paint-order:markers fill stroke"/><path id="path6016" d="m -227.54972,394.8061 c 0,0 -4.3391,-3.78964 -6.8999,-7.41862 -2.5607,-3.62896 -7.7307,-14.78976 -7.7307,-14.78976 0,0 11.5902,3.13886 16.7844,5.54668 3.24055,1.50216 8.89585,5.5173 8.89585,5.5173" style="fill:#45aeb5;fill-opacity:1;stroke:#eee;stroke-width:2.99999976;stroke-linecap:round;stroke-linejoin:round;stroke-miterlimit:4;stroke-dasharray:none;stroke-opacity:1"/><path style="fill:#45aeb5;fill-opacity:1;stroke:#eee;stroke-width:3.00621581;stroke-linecap:round;stroke-linejoin:round;stroke-miterlimit:4;stroke-dasharray:none;stroke-dashoffset:0;stroke-opacity:1;paint-order:markers fill stroke" id="path6018" d="m 173.27612,401.37943 a 7.8409114,13.57887 0 0 1 -7.82038,13.57882 7.8409114,13.57887 0 0 1 -7.86133,-13.50773" transform="matrix(0.69822222,0.71588109,-0.77632832,0.63032875,0,0)"/><path style="fill:#45aeb5;fill-opacity:1;stroke:#eee;stroke-width:2.99999976;stroke-linecap:round;stroke-linejoin:round;stroke-miterlimit:4;stroke-dasharray:none;stroke-opacity:1" id="path6020" d="m -201.68797,365.91824 c 0,0 4.5978,-3.5265 8.8285,-5.45729 4.2307,-1.9308 16.95,-5.41483 16.95,-5.41483 0,0 -4.672,10.17396 -7.8566,14.62541 -1.9867,2.77708 -6.9724,7.47312 -6.9724,7.47312"/><path id="path6022" d="m 201.77112,426.97806 a 7.8409114,13.57887 0 0 1 -7.82039,13.57882 7.8409114,13.57887 0 0 1 -7.86133,-13.50772" transform="matrix(0.69822222,0.71588109,-0.77632832,0.63032875,0,0)" style="fill:#45aeb5;fill-opacity:1;stroke:#eee;stroke-width:3.00621581;stroke-linecap:round;stroke-linejoin:round;stroke-miterlimit:4;stroke-dasharray:none;stroke-dashoffset:0;stroke-opacity:1;paint-order:markers fill stroke"/><path id="path6024" d="m -201.66507,402.45282 c 0,0 4.5979,-3.5265 8.8286,-5.45729 4.2307,-1.9308 16.9499,-5.41483 16.9499,-5.41483 0,0 -4.6719,10.17396 -7.8565,14.62541 -1.9868,2.77708 -6.9725,7.47312 -6.9725,7.47312" style="fill:#45aeb5;fill-opacity:1;stroke:#eee;stroke-width:2.99999976;stroke-linecap:round;stroke-linejoin:round;stroke-miterlimit:4;stroke-dasharray:none;stroke-opacity:1"/><path style="fill:#45aeb5;fill-opacity:1;stroke:#eee;stroke-width:2.99999928;stroke-linecap:round;stroke-linejoin:round;stroke-miterlimit:4;stroke-dasharray:none;stroke-dashoffset:0;stroke-opacity:1;paint-order:markers fill stroke" id="path6026" d="m -200.70141,349.29935 a 8.2353258,12.875122 0 0 1 -8.21377,12.87507 8.2353258,12.875122 0 0 1 -8.25677,-12.80766" transform="matrix(0.99999974,7.2131284e-4,-8.6647235e-4,0.99999962,0,0)"/><path style="fill:#45aeb5;fill-opacity:1;stroke:#eee;stroke-width:2.99999976;stroke-linecap:round;stroke-linejoin:round;stroke-miterlimit:4;stroke-dasharray:none;stroke-opacity:1" id="path6028" d="m -217.47507,349.29086 c 0,0 0.1739,-5.47811 1.4092,-9.64441 1.2352,-4.16629 6.8477,-15.14773 6.8477,-15.14773 0,0 5.2156,9.9516 6.7388,15.08255 0.9502,3.201 1.4751,9.72147 1.4751,9.72147"/><ellipse style="fill:#45aeb5;fill-opacity:1;stroke:#222a31;stroke-width:7;stroke-linecap:round;stroke-linejoin:round;stroke-miterlimit:4;stroke-dasharray:27.99999932,13.99999968;stroke-dashoffset:0;stroke-opacity:1;paint-order:markers fill stroke" id="ellipse6030" cx="-191.489" cy="169.981" rx="82.313" ry="77.942"/><ellipse id="ellipse6032" cx="200.658" cy="259.573" rx="99.9" ry="102.563" style="fill:#45aeb5;fill-opacity:1;stroke:#222a31;stroke-width:7;stroke-linecap:round;stroke-linejoin:round;stroke-miterlimit:4;stroke-dasharray:27.9999998,13.99999995;stroke-dashoffset:0;stroke-opacity:1;paint-order:markers fill stroke"/><path id="path6034" d="m 189.542,319.41963 a 13.233739,15.321853 0 0 1 11.66212,-8.41259 13.233739,15.321853 0 0 1 11.82396,8.1041" style="fill:none;fill-opacity:1;stroke:#eee;stroke-width:7;stroke-linecap:round;stroke-linejoin:round;stroke-miterlimit:4;stroke-dasharray:none;stroke-dashoffset:0;stroke-opacity:1;paint-order:markers fill stroke"/><path style="fill:none;fill-opacity:1;stroke:#eee;stroke-width:7;stroke-linecap:round;stroke-linejoin:round;stroke-miterlimit:4;stroke-dasharray:none;stroke-dashoffset:0;stroke-opacity:1;paint-order:markers fill stroke" id="path6036" d="m 213.24937,319.2957 a 13.233739,15.321853 0 0 1 9.53631,4.37145 13.233739,15.321853 0 0 1 3.97458,10.94705"/><path id="path6038" d="m 173.82577,334.48049 a 13.233739,15.321853 0 0 1 4.7356,-11.6121 13.233739,15.321853 0 0 1 10.70461,-3.36148" style="fill:none;fill-opacity:1;stroke:#eee;stroke-width:7;stroke-linecap:round;stroke-linejoin:round;stroke-miterlimit:4;stroke-dasharray:none;stroke-dashoffset:0;stroke-opacity:1;paint-order:markers fill stroke"/><path id="path6040" d="M 200.55431,308.06645 V 226.72776" style="fill:none;stroke:#eee;stroke-width:6.99999905;stroke-linecap:round;stroke-linejoin:miter;stroke-miterlimit:4;stroke-dasharray:none;stroke-opacity:1"/><path id="path6042" d="m -62.370356,313.354 a 9.9359646,17.04372 0 0 1 -9.909952,17.04367 9.9359646,17.04372 0 0 1 -9.961841,-16.95443" transform="matrix(0.67484057,-0.73796355,0.74517044,0.66687406,0,0)" style="fill:#45aeb5;fill-opacity:1;stroke:#eee;stroke-width:3.00008535;stroke-linecap:round;stroke-linejoin:round;stroke-miterlimit:4;stroke-dasharray:none;stroke-dashoffset:0;stroke-opacity:1;paint-order:markers fill stroke"/><path id="path6044" d="m 178.14779,269.79055 c 0,0 -5.26616,-4.98677 -8.37403,-9.76213 -3.10786,-4.77533 -9.38244,-19.46181 -9.38244,-19.46181 0,0 14.06646,4.13042 20.37052,7.29885 3.93284,1.97671 10.79645,7.26021 10.79645,7.26021" style="fill:#45aeb5;fill-opacity:1;stroke:#eee;stroke-width:2.99999976;stroke-linecap:round;stroke-linejoin:round;stroke-miterlimit:4;stroke-dasharray:none;stroke-opacity:1"/><path style="fill:#45aeb5;fill-opacity:1;stroke:#eee;stroke-width:3.00008488;stroke-linecap:round;stroke-linejoin:round;stroke-miterlimit:4;stroke-dasharray:none;stroke-dashoffset:0;stroke-opacity:1;paint-order:markers fill stroke" id="path6046" d="M 332.31204,-0.96922445 A 9.935091,17.045214 0 0 1 322.40296,16.075931 9.935091,17.045214 0 0 1 312.442,-0.87997691" transform="matrix(0.66878069,0.74345974,-0.75058862,0.66076979,0,0)"/><path style="fill:#45aeb5;fill-opacity:1;stroke:#eee;stroke-width:2.99999976;stroke-linecap:round;stroke-linejoin:round;stroke-miterlimit:4;stroke-dasharray:none;stroke-opacity:1" id="path6048" d="m 209.53499,231.77711 c 0,0 5.58019,-4.64049 10.71483,-7.18122 5.13462,-2.54075 20.57137,-7.12536 20.57137,-7.12536 0,0 -5.67013,13.38788 -9.53511,19.24552 -2.41124,3.65436 -8.46219,9.83386 -8.46219,9.83386"/><path id="path6050" d="M 368.41754,31.164049 A 9.935091,17.045214 0 0 1 358.50846,48.209204 9.935091,17.045214 0 0 1 348.5475,31.253297" transform="matrix(0.66878069,0.74345974,-0.75058862,0.66076979,0,0)" style="fill:#45aeb5;fill-opacity:1;stroke:#eee;stroke-width:3.00008488;stroke-linecap:round;stroke-linejoin:round;stroke-miterlimit:4;stroke-dasharray:none;stroke-dashoffset:0;stroke-opacity:1;paint-order:markers fill stroke"/><path id="path6052" d="m 209.56285,279.85285 c 0,0 5.58019,-4.64052 10.71484,-7.18122 5.13462,-2.54076 20.57137,-7.12536 20.57137,-7.12536 0,0 -5.67012,13.38788 -9.53513,19.24552 -2.41123,3.65435 -8.46218,9.83386 -8.46218,9.83386" style="fill:#45aeb5;fill-opacity:1;stroke:#eee;stroke-width:2.99999976;stroke-linecap:round;stroke-linejoin:round;stroke-miterlimit:4;stroke-dasharray:none;stroke-opacity:1"/><path style="fill:#45aeb5;fill-opacity:1;stroke:#eee;stroke-width:2.99999928;stroke-linecap:round;stroke-linejoin:round;stroke-miterlimit:4;stroke-dasharray:none;stroke-dashoffset:0;stroke-opacity:1;paint-order:markers fill stroke" id="path6054" d="m 210.53263,209.55301 a 9.9948473,16.942327 0 0 1 -9.96868,16.94227 9.9948473,16.942327 0 0 1 -10.02088,-16.85356" transform="matrix(0.99999969,7.8207814e-4,-7.9914714e-4,0.99999968,0,0)"/><path style="fill:#45aeb5;fill-opacity:1;stroke:#eee;stroke-width:2.99999976;stroke-linecap:round;stroke-linejoin:round;stroke-miterlimit:4;stroke-dasharray:none;stroke-opacity:1" id="path6056" d="m 190.37492,209.8972 c 0,0 0.21112,-7.20863 1.71028,-12.69106 1.49918,-5.4824 8.31074,-19.93285 8.31074,-19.93285 0,0 6.32995,13.0953 8.17853,19.84709 1.1533,4.21219 1.79032,12.79246 1.79032,12.79246"/><path style="fill:none;fill-opacity:1;stroke:#eee;stroke-width:7;stroke-linecap:round;stroke-linejoin:round;stroke-miterlimit:4;stroke-dasharray:none;stroke-dashoffset:0;stroke-opacity:1;paint-order:markers fill stroke" id="path6058" d="m 189.542,319.41963 a 13.233739,15.321853 0 0 1 11.66212,-8.41259 13.233739,15.321853 0 0 1 11.82396,8.1041"/><path id="path6060" d="m 213.24937,319.2957 a 13.233739,15.321853 0 0 1 9.53631,4.37145 13.233739,15.321853 0 0 1 3.97458,10.94705" style="fill:none;fill-opacity:1;stroke:#eee;stroke-width:7;stroke-linecap:round;stroke-linejoin:round;stroke-miterlimit:4;stroke-dasharray:none;stroke-dashoffset:0;stroke-opacity:1;paint-order:markers fill stroke"/><path style="fill:none;fill-opacity:1;stroke:#eee;stroke-width:7;stroke-linecap:round;stroke-linejoin:round;stroke-miterlimit:4;stroke-dasharray:none;stroke-dashoffset:0;stroke-opacity:1;paint-order:markers fill stroke" id="path6062" d="m 173.82577,334.48049 a 13.233739,15.321853 0 0 1 4.7356,-11.6121 13.233739,15.321853 0 0 1 10.70461,-3.36148"/><path style="fill:none;stroke:#eee;stroke-width:6.99999905;stroke-linecap:round;stroke-linejoin:miter;stroke-miterlimit:4;stroke-dasharray:none;stroke-opacity:1" id="path6064" d="M 200.55431,308.06645 V 226.72776"/><path style="fill:#45aeb5;fill-opacity:1;stroke:#eee;stroke-width:3.00008535;stroke-linecap:round;stroke-linejoin:round;stroke-miterlimit:4;stroke-dasharray:none;stroke-dashoffset:0;stroke-opacity:1;paint-order:markers fill stroke" id="path6066" d="m -62.370356,313.354 a 9.9359646,17.04372 0 0 1 -9.909952,17.04367 9.9359646,17.04372 0 0 1 -9.961841,-16.95443" transform="matrix(0.67484057,-0.73796355,0.74517044,0.66687406,0,0)"/><path style="fill:#45aeb5;fill-opacity:1;stroke:#eee;stroke-width:2.99999976;stroke-linecap:round;stroke-linejoin:round;stroke-miterlimit:4;stroke-dasharray:none;stroke-opacity:1" id="path6068" d="m 178.14779,269.79055 c 0,0 -5.26616,-4.98677 -8.37403,-9.76213 -3.10786,-4.77533 -9.38244,-19.46181 -9.38244,-19.46181 0,0 14.06646,4.13042 20.37052,7.29885 3.93284,1.97671 10.79645,7.26021 10.79645,7.26021"/><path id="path6070" d="M 332.31204,-0.96922445 A 9.935091,17.045214 0 0 1 322.40296,16.075931 9.935091,17.045214 0 0 1 312.442,-0.87997691" transform="matrix(0.66878069,0.74345974,-0.75058862,0.66076979,0,0)" style="fill:#45aeb5;fill-opacity:1;stroke:#eee;stroke-width:3.00008488;stroke-linecap:round;stroke-linejoin:round;stroke-miterlimit:4;stroke-dasharray:none;stroke-dashoffset:0;stroke-opacity:1;paint-order:markers fill stroke"/><path id="path6072" d="m 209.53499,231.77711 c 0,0 5.58019,-4.64049 10.71483,-7.18122 5.13462,-2.54075 20.57137,-7.12536 20.57137,-7.12536 0,0 -5.67013,13.38788 -9.53511,19.24552 -2.41124,3.65436 -8.46219,9.83386 -8.46219,9.83386" style="fill:#45aeb5;fill-opacity:1;stroke:#eee;stroke-width:2.99999976;stroke-linecap:round;stroke-linejoin:round;stroke-miterlimit:4;stroke-dasharray:none;stroke-opacity:1"/><path style="fill:#45aeb5;fill-opacity:1;stroke:#eee;stroke-width:3.00008488;stroke-linecap:round;stroke-linejoin:round;stroke-miterlimit:4;stroke-dasharray:none;stroke-dashoffset:0;stroke-opacity:1;paint-order:markers fill stroke" id="path6074" d="M 368.41754,31.164049 A 9.935091,17.045214 0 0 1 358.50846,48.209204 9.935091,17.045214 0 0 1 348.5475,31.253297" transform="matrix(0.66878069,0.74345974,-0.75058862,0.66076979,0,0)"/><path style="fill:#45aeb5;fill-opacity:1;stroke:#eee;stroke-width:2.99999976;stroke-linecap:round;stroke-linejoin:round;stroke-miterlimit:4;stroke-dasharray:none;stroke-opacity:1" id="path6076" d="m 209.56285,279.85285 c 0,0 5.58019,-4.64052 10.71484,-7.18122 5.13462,-2.54076 20.57137,-7.12536 20.57137,-7.12536 0,0 -5.67012,13.38788 -9.53513,19.24552 -2.41123,3.65435 -8.46218,9.83386 -8.46218,9.83386"/><path id="path6078" d="m 210.53263,209.55301 a 9.9948473,16.942327 0 0 1 -9.96868,16.94227 9.9948473,16.942327 0 0 1 -10.02088,-16.85356" transform="matrix(0.99999969,7.8207814e-4,-7.9914714e-4,0.99999968,0,0)" style="fill:#45aeb5;fill-opacity:1;stroke:#eee;stroke-width:2.99999928;stroke-linecap:round;stroke-linejoin:round;stroke-miterlimit:4;stroke-dasharray:none;stroke-dashoffset:0;stroke-opacity:1;paint-order:markers fill stroke"/><path id="path6080" d="m 190.37492,209.8972 c 0,0 0.21112,-7.20863 1.71028,-12.69106 1.49918,-5.4824 8.31074,-19.93285 8.31074,-19.93285 0,0 6.32995,13.0953 8.17853,19.84709 1.1533,4.21219 1.79032,12.79246 1.79032,12.79246" style="fill:#45aeb5;fill-opacity:1;stroke:#eee;stroke-width:2.99999976;stroke-linecap:round;stroke-linejoin:round;stroke-miterlimit:4;stroke-dasharray:none;stroke-opacity:1"/><path style="fill:#b3b3b3;fill-opacity:1;stroke:#000;stroke-width:1px;stroke-linecap:butt;stroke-linejoin:miter;stroke-opacity:1" id="path6229" d="m 348.29128,228.53864 7.4713,8.49833 4.57425,16.56454 1.06733,6.76986 92.70496,-16.4205 -2.59208,-13.53971 -13.87525,-9.65064 -22.56634,-4.32119 -43.15049,5.61754 z"/><path style="fill:#999;fill-opacity:1;stroke:#000;stroke-width:1px;stroke-linecap:butt;stroke-linejoin:miter;stroke-opacity:1" id="path6211" d="m 235.53584,422.9199 14.33267,-18.58109 15.94063,-53.94944 21.77889,-58.66633 17.03497,-28.92576 20.05383,-22.61098 20.05383,-10.99995 6.46898,1.42593 6.68461,10.99993 3.66575,18.53694 11.85979,-1.62963 80.86222,-14.25917 -3.01885,7.33329 -13.58486,4.68516 -64.67602,12.01474 -18.4495,2.16059 -2.28713,-13.97183 -6.09901,-11.52316 -7.4713,1.58444 -17.2297,17.1407 -5.33663,12.24335 -6.70892,33.56119 2.28714,40.76317 2.4396,24.19863 8.84356,47.96514 3.20199,12.53143 6.55643,24.77478 L 315.20416,449.63922 294.62,439.26838 250.2497,427.45714 Z"/><path style="fill:none;fill-opacity:1;stroke:#222a31;stroke-width:3.70000005;stroke-linecap:round;stroke-linejoin:round;stroke-miterlimit:4;stroke-dasharray:none;stroke-opacity:1" id="path6088" d="m 343.08818,230.14838 c 0,0 68.78722,-23.53204 98.27649,-8.12149 13.73019,7.17515 13.12298,22.02975 13.12298,22.02975 l -93.15328,16.70361"/><path style="fill:none;fill-opacity:1;stroke:#222a31;stroke-width:3.70000005;stroke-linecap:round;stroke-linejoin:round;stroke-miterlimit:4;stroke-dasharray:none;stroke-opacity:1" id="path6084" d="m 438.46954,256.90438 c 0,0 1.86828,39.4778 4.73859,57.51761 3.75971,23.62967 10.05613,48.81792 21.30736,70.21899 8.59326,16.34532 27.4044,27.33476 27.4044,27.33476 0,0 -60.14828,20.94667 -90.65601,30.20413 -22.51579,6.83234 -68.13342,18.68594 -68.13342,18.68594 0,0 -18.32621,-13.59643 -33.92701,-19.60248 -17.3304,-6.67192 -64.6587,-17.83929 -64.6587,-17.83929 0,0 14.64879,-12.69903 18.53998,-27.04031 13.164,-48.51691 39.61558,-151.32908 92.07295,-166.92794 13.02954,-3.87451 16.17669,31.30446 16.17669,31.30446"/><path style="fill:none;stroke:#222a31;stroke-width:3.70000005;stroke-linecap:round;stroke-linejoin:round;stroke-miterlimit:4;stroke-dasharray:none;stroke-opacity:1" id="path6086" d="m 333.28046,461.15415 c 0,0 -57.89061,-190.77213 9.18561,-215.84824 10.03211,-3.75046 11.75242,25.23206 11.75242,25.23206 0,0 23.29425,-2.81918 50.7834,-7.85521 7.65823,-1.403 17.98905,-3.0972 24.86207,-4.75086 6.08211,-1.46336 14.17661,-2.81508 18.47835,-5.07229 4.52411,-2.3739 6.14534,-8.80297 6.14534,-8.80297"/><ellipse id="ellipse6149" cx="308.784" cy="497.879" rx="48.727" ry="63.192" transform="matrix(0.89409264,-0.44788207,0.21877694,0.9757749,0,0)" style="fill:#45aeb5;fill-opacity:1;stroke:#222a31;stroke-width:7.10588646;stroke-linecap:round;stroke-linejoin:round;stroke-miterlimit:4;stroke-dasharray:28.42354756,14.21177378;stroke-dashoffset:0;stroke-opacity:1;paint-order:markers fill stroke"/><path id="path6151" d="m 303.3621,534.75252 a 6.4548006,9.4402285 0 0 1 5.68824,-5.18323 6.4548006,9.4402285 0 0 1 5.76718,4.99316" transform="matrix(0.89409264,-0.44788207,0.21877694,0.9757749,0,0)" style="fill:none;fill-opacity:1;stroke:#eee;stroke-width:7.10588646;stroke-linecap:round;stroke-linejoin:round;stroke-miterlimit:4;stroke-dasharray:none;stroke-dashoffset:0;stroke-opacity:1;paint-order:markers fill stroke"/><path style="fill:none;fill-opacity:1;stroke:#eee;stroke-width:7.10588646;stroke-linecap:round;stroke-linejoin:round;stroke-miterlimit:4;stroke-dasharray:none;stroke-dashoffset:0;stroke-opacity:1;paint-order:markers fill stroke" id="path6153" d="m 314.92546,534.6761 a 6.4548006,9.4402285 0 0 1 4.65137,2.69337 6.4548006,9.4402285 0 0 1 1.93861,6.74479" transform="matrix(0.89409264,-0.44788207,0.21877694,0.9757749,0,0)"/><path id="path6155" d="m 295.69642,544.03188 a 6.4548006,9.4402285 0 0 1 2.3098,-7.15455 6.4548006,9.4402285 0 0 1 5.22121,-2.0711" transform="matrix(0.89409264,-0.44788207,0.21877694,0.9757749,0,0)" style="fill:none;fill-opacity:1;stroke:#eee;stroke-width:7.10588646;stroke-linecap:round;stroke-linejoin:round;stroke-miterlimit:4;stroke-dasharray:none;stroke-dashoffset:0;stroke-opacity:1;paint-order:markers fill stroke"/><path id="path6157" d="M 391.49745,376.69631 380.53343,327.79527" style="fill:none;stroke:#eee;stroke-width:7;stroke-linecap:round;stroke-linejoin:miter;stroke-miterlimit:4;stroke-dasharray:none;stroke-opacity:1"/><path id="path6159" d="m -113.73103,479.61777 a 6.1838222,8.1528358 0 0 1 -6.16763,8.15281 6.1838222,8.1528358 0 0 1 -6.19993,-8.11012" transform="matrix(0.31303392,-0.94974195,0.86727057,0.49783707,0,0)" style="fill:#45aeb5;fill-opacity:1;stroke:#eee;stroke-width:3.03119445;stroke-linecap:round;stroke-linejoin:round;stroke-miterlimit:4;stroke-dasharray:none;stroke-dashoffset:0;stroke-opacity:1;paint-order:markers fill stroke"/><path id="path6161" d="m 376.56664,358.57958 c 0,0 -2.96874,-1.84763 -4.96779,-4.03965 -1.99901,-2.19203 -6.71499,-9.65084 -6.71499,-9.65084 0,0 6.69112,-0.58969 9.86734,-0.062 1.98158,0.32922 5.68696,2.00629 5.68696,2.00629" style="fill:#45aeb5;fill-opacity:1;stroke:#eee;stroke-width:2.99999976;stroke-linecap:round;stroke-linejoin:round;stroke-miterlimit:4;stroke-dasharray:none;stroke-opacity:1"/><path style="fill:#45aeb5;fill-opacity:1;stroke:#eee;stroke-width:3.04904389;stroke-linecap:round;stroke-linejoin:round;stroke-miterlimit:4;stroke-dasharray:none;stroke-dashoffset:0;stroke-opacity:1;paint-order:markers fill stroke" id="path6163" d="m 508.76098,27.05781 a 4.9084115,10.392608 0 0 1 -4.89556,10.392572 4.9084115,10.392608 0 0 1 -4.92119,-10.338157" transform="matrix(0.79317699,0.60899119,-0.3907786,0.9204847,0,0)"/><path style="fill:#45aeb5;fill-opacity:1;stroke:#eee;stroke-width:2.99999976;stroke-linecap:round;stroke-linejoin:round;stroke-miterlimit:4;stroke-dasharray:none;stroke-opacity:1" id="path6165" d="m 385.13051,328.86907 c 0,0 1.80797,-4.00891 3.70467,-6.65808 1.89668,-2.64918 8.01067,-8.77774 8.01067,-8.77774 0,0 -0.66808,9.28751 -1.56402,13.65349 -0.55891,2.72374 -2.36477,7.76073 -2.36477,7.76073"/><path id="path6167" d="M 526.5989,46.649788 A 4.9084115,10.392608 0 0 1 521.70334,57.04236 4.9084115,10.392608 0 0 1 516.78215,46.704203" transform="matrix(0.79317699,0.60899119,-0.3907786,0.9204847,0,0)" style="fill:#45aeb5;fill-opacity:1;stroke:#eee;stroke-width:3.04904389;stroke-linecap:round;stroke-linejoin:round;stroke-miterlimit:4;stroke-dasharray:none;stroke-dashoffset:0;stroke-opacity:1;paint-order:markers fill stroke"/><path id="path6169" d="m 391.62295,357.76627 c 0,0 1.80806,-4.00894 3.7048,-6.65811 1.89665,-2.64918 8.01056,-8.77772 8.01056,-8.77772 0,0 -0.66808,9.28749 -1.56394,13.65346 -0.559,2.72377 -2.36485,7.76076 -2.36485,7.76076" style="fill:#45aeb5;fill-opacity:1;stroke:#eee;stroke-width:2.99999976;stroke-linecap:round;stroke-linejoin:round;stroke-miterlimit:4;stroke-dasharray:none;stroke-opacity:1"/><path style="fill:#45aeb5;fill-opacity:1;stroke:#eee;stroke-width:3.04524875;stroke-linecap:round;stroke-linejoin:round;stroke-miterlimit:4;stroke-dasharray:none;stroke-dashoffset:0;stroke-opacity:1;paint-order:markers fill stroke" id="path6171" d="m 313.73934,466.92337 a 4.8738585,10.440245 0 0 1 -4.8611,10.44021 4.8738585,10.440245 0 0 1 -4.88655,-10.38555" transform="matrix(0.89452171,-0.4470245,0.21817794,0.97590901,0,0)"/><path style="fill:#45aeb5;fill-opacity:1;stroke:#eee;stroke-width:2.99999976;stroke-linecap:round;stroke-linejoin:round;stroke-miterlimit:4;stroke-dasharray:none;stroke-opacity:1" id="path6173" d="m 373.82556,319.90044 c 0,0 -0.87965,-4.37995 -0.96484,-8.00352 -0.0852,-3.62352 0.93745,-13.79921 0.93745,-13.79921 0,0 4.52564,6.4901 6.24193,10.14546 1.0707,2.28045 2.50507,7.29976 2.50507,7.29976"/><path style="fill:none;fill-opacity:1;stroke:#eee;stroke-width:5.07563353;stroke-linecap:round;stroke-linejoin:round;stroke-miterlimit:4;stroke-dasharray:none;stroke-dashoffset:0;stroke-opacity:1;paint-order:markers fill stroke" id="path6175" d="m 303.3621,534.75252 a 6.4548006,9.4402285 0 0 1 5.68824,-5.18323 6.4548006,9.4402285 0 0 1 5.76718,4.99316" transform="matrix(0.89409264,-0.44788207,0.21877694,0.9757749,0,0)"/><path id="path6177" d="m 314.92546,534.6761 a 6.4548006,9.4402285 0 0 1 4.65137,2.69337 6.4548006,9.4402285 0 0 1 1.93861,6.74479" transform="matrix(0.89409264,-0.44788207,0.21877694,0.9757749,0,0)" style="fill:none;fill-opacity:1;stroke:#eee;stroke-width:5.07563353;stroke-linecap:round;stroke-linejoin:round;stroke-miterlimit:4;stroke-dasharray:none;stroke-dashoffset:0;stroke-opacity:1;paint-order:markers fill stroke"/><path style="fill:none;fill-opacity:1;stroke:#eee;stroke-width:5.07563353;stroke-linecap:round;stroke-linejoin:round;stroke-miterlimit:4;stroke-dasharray:none;stroke-dashoffset:0;stroke-opacity:1;paint-order:markers fill stroke" id="path6179" d="m 295.69642,544.03188 a 6.4548006,9.4402285 0 0 1 2.3098,-7.15455 6.4548006,9.4402285 0 0 1 5.22121,-2.0711" transform="matrix(0.89409264,-0.44788207,0.21877694,0.9757749,0,0)"/><path style="fill:none;stroke:#eee;stroke-width:6;stroke-linecap:round;stroke-linejoin:miter;stroke-miterlimit:4;stroke-dasharray:none;stroke-opacity:1" id="path6181" d="M 391.49745,376.69631 380.53343,327.79527"/><path style="fill:#45aeb5;fill-opacity:1;stroke:#eee;stroke-width:3.03119445;stroke-linecap:round;stroke-linejoin:round;stroke-miterlimit:4;stroke-dasharray:none;stroke-dashoffset:0;stroke-opacity:1;paint-order:markers fill stroke" id="path6183" d="m -113.73103,479.61777 a 6.1838222,8.1528358 0 0 1 -6.16763,8.15281 6.1838222,8.1528358 0 0 1 -6.19993,-8.11012" transform="matrix(0.31303392,-0.94974195,0.86727057,0.49783707,0,0)"/><path style="fill:#45aeb5;fill-opacity:1;stroke:#eee;stroke-width:2.99999976;stroke-linecap:round;stroke-linejoin:round;stroke-miterlimit:4;stroke-dasharray:none;stroke-opacity:1" id="path6185" d="m 376.56664,358.57958 c 0,0 -2.96874,-1.84763 -4.96779,-4.03965 -1.99901,-2.19203 -6.71499,-9.65084 -6.71499,-9.65084 0,0 6.69112,-0.58969 9.86734,-0.062 1.98158,0.32922 5.68696,2.00629 5.68696,2.00629"/><path id="path6187" d="m 508.76098,27.05781 a 4.9084115,10.392608 0 0 1 -4.89556,10.392572 4.9084115,10.392608 0 0 1 -4.92119,-10.338157" transform="matrix(0.79317699,0.60899119,-0.3907786,0.9204847,0,0)" style="fill:#45aeb5;fill-opacity:1;stroke:#eee;stroke-width:3.04904389;stroke-linecap:round;stroke-linejoin:round;stroke-miterlimit:4;stroke-dasharray:none;stroke-dashoffset:0;stroke-opacity:1;paint-order:markers fill stroke"/><path id="path6189" d="m 385.13051,328.86907 c 0,0 1.80797,-4.00891 3.70467,-6.65808 1.89668,-2.64918 8.01067,-8.77774 8.01067,-8.77774 0,0 -0.66808,9.28751 -1.56402,13.65349 -0.55891,2.72374 -2.36477,7.76073 -2.36477,7.76073" style="fill:#45aeb5;fill-opacity:1;stroke:#eee;stroke-width:2.99999976;stroke-linecap:round;stroke-linejoin:round;stroke-miterlimit:4;stroke-dasharray:none;stroke-opacity:1"/><path style="fill:#45aeb5;fill-opacity:1;stroke:#eee;stroke-width:3.04904389;stroke-linecap:round;stroke-linejoin:round;stroke-miterlimit:4;stroke-dasharray:none;stroke-dashoffset:0;stroke-opacity:1;paint-order:markers fill stroke" id="path6191" d="M 526.5989,46.649788 A 4.9084115,10.392608 0 0 1 521.70334,57.04236 4.9084115,10.392608 0 0 1 516.78215,46.704203" transform="matrix(0.79317699,0.60899119,-0.3907786,0.9204847,0,0)"/><path style="fill:#45aeb5;fill-opacity:1;stroke:#eee;stroke-width:2.99999976;stroke-linecap:round;stroke-linejoin:round;stroke-miterlimit:4;stroke-dasharray:none;stroke-opacity:1" id="path6193" d="m 391.62295,357.76627 c 0,0 1.80806,-4.00894 3.7048,-6.65811 1.89665,-2.64918 8.01056,-8.77772 8.01056,-8.77772 0,0 -0.66808,9.28749 -1.56394,13.65346 -0.559,2.72377 -2.36485,7.76076 -2.36485,7.76076"/><path id="path6195" d="m 313.73934,466.92337 a 4.8738585,10.440245 0 0 1 -4.8611,10.44021 4.8738585,10.440245 0 0 1 -4.88655,-10.38555" transform="matrix(0.89452171,-0.4470245,0.21817794,0.97590901,0,0)" style="fill:#45aeb5;fill-opacity:1;stroke:#eee;stroke-width:3.04524875;stroke-linecap:round;stroke-linejoin:round;stroke-miterlimit:4;stroke-dasharray:none;stroke-dashoffset:0;stroke-opacity:1;paint-order:markers fill stroke"/><path id="path6197" d="m 373.82556,319.90044 c 0,0 -0.87965,-4.37995 -0.96484,-8.00352 -0.0852,-3.62352 0.93745,-13.79921 0.93745,-13.79921 0,0 4.52564,6.4901 6.24193,10.14546 1.0707,2.28045 2.50507,7.29976 2.50507,7.29976" style="fill:#45aeb5;fill-opacity:1;stroke:#eee;stroke-width:2.99999976;stroke-linecap:round;stroke-linejoin:round;stroke-miterlimit:4;stroke-dasharray:none;stroke-opacity:1"/><path style="fill:none;stroke:#222a31;stroke-width:4;stroke-linecap:round;stroke-linejoin:round;stroke-miterlimit:4;stroke-dasharray:none;stroke-opacity:1" id="path6199" d="m 314.49146,260.48118 c 0,0 -4.57164,7.80721 -8.60808,18.93912 -4.71962,13.01599 -9.18254,30.57734 -11.94922,45.51858 -3.21874,17.38249 -5.63746,34.90406 -6.97189,47.77878 -1.12952,10.89788 0.034,34.57395 0.034,34.57395"/><path style="fill:none;stroke:#222a31;stroke-width:4;stroke-linecap:round;stroke-linejoin:round;stroke-miterlimit:4;stroke-dasharray:none;stroke-opacity:1" id="path6201" d="m 287.21187,406.27309 c 0,0 6.80534,11.91481 11.423,17.0252 5.67835,6.28425 20.11321,19.6512 20.11321,19.6512"/><path style="fill:none;stroke:#222a31;stroke-width:4;stroke-linecap:round;stroke-linejoin:round;stroke-miterlimit:4;stroke-dasharray:none;stroke-opacity:1" id="path6203" d="m 286.7255,406.20387 c 0,0 -13.66367,8.98104 -19.83611,11.20885 -6.29465,2.27192 -17.03707,2.03183 -17.03707,2.03183"/><path style="fill:none;stroke:#222a31;stroke-width:1.5;stroke-linecap:round;stroke-linejoin:round;stroke-miterlimit:4;stroke-dasharray:none;stroke-opacity:1" id="path6205" d="m 351.30746,272.575 c 0,0 -1.35772,-23.09721 -7.39639,-23.62679 -3.77159,-0.33077 -9.93138,4.99351 -13.04698,8.28252 -4.84964,5.11955 -11.34461,18.4451 -14.2355,32.31879 -3.91703,18.79825 -2.30212,38.83997 -2.30212,38.83997"/><path style="fill:none;stroke:#222a31;stroke-width:1.5;stroke-linecap:round;stroke-linejoin:round;stroke-miterlimit:4;stroke-dasharray:none;stroke-opacity:1" id="path6207" d="m 320.79545,382.16697 c 0,0 8.35991,64.49952 34.24235,64.3269 11.75425,-0.0784 80.9927,-15.3859 102.97434,-28.89579 23.16977,-14.24012 7.65403,-21.53342 7.65403,-21.53342"/><path style="fill:none;stroke:#222a31;stroke-width:1.29999983;stroke-linecap:round;stroke-linejoin:miter;stroke-miterlimit:4;stroke-dasharray:none;stroke-opacity:1" id="path6231" d="m 323.39532,59.081611 3.85193,9.156022"/><path id="path6233" d="m 323.39532,59.081611 3.85193,9.156022" style="fill:none;stroke:#222a31;stroke-width:1.29999983;stroke-linecap:round;stroke-linejoin:miter;stroke-miterlimit:4;stroke-dasharray:none;stroke-opacity:1"/><path style="fill:none;stroke:#222a31;stroke-width:1.29999983;stroke-linecap:round;stroke-linejoin:miter;stroke-miterlimit:4;stroke-dasharray:none;stroke-opacity:1" id="path6235" d="m 333.35626,59.667549 3.85193,9.156022"/><path id="path6237" d="m 343.70782,59.862862 3.85193,9.156022" style="fill:none;stroke:#222a31;stroke-width:1.29999983;stroke-linecap:round;stroke-linejoin:miter;stroke-miterlimit:4;stroke-dasharray:none;stroke-opacity:1"/><path style="fill:none;stroke:#222a31;stroke-width:1.29999983;stroke-linecap:round;stroke-linejoin:miter;stroke-miterlimit:4;stroke-dasharray:none;stroke-opacity:1" id="path6239" d="m 353.66876,60.4488 3.85193,9.156022"/><path id="path6241" d="m 363.6297,60.644113 3.85193,9.156022" style="fill:none;stroke:#222a31;stroke-width:1.29999983;stroke-linecap:round;stroke-linejoin:miter;stroke-miterlimit:4;stroke-dasharray:none;stroke-opacity:1"/><path style="fill:none;stroke:#222a31;stroke-width:1.29999983;stroke-linecap:round;stroke-linejoin:miter;stroke-miterlimit:4;stroke-dasharray:none;stroke-opacity:1" id="path6243" d="m 372.41876,60.644113 3.85193,9.156022"/></g></svg>