<svg xmlns="http://www.w3.org/2000/svg" xmlns:svg="http://www.w3.org/2000/svg" id="SVGRoot" width="500" height="500" version="1.1" viewBox="0 0 500 500"><metadata id="metadata4517"/><g id="layer1"><path id="path5131" d="m -46.245815,238.18996 9.453747,-4.8526" style="fill:none;fill-opacity:1;stroke:#999;stroke-width:6.9000001;stroke-linecap:butt;stroke-linejoin:miter;stroke-miterlimit:4;stroke-dasharray:none;stroke-opacity:1"/><path style="fill:none;stroke:#999;stroke-width:2;stroke-linecap:butt;stroke-linejoin:miter;stroke-miterlimit:4;stroke-dasharray:none;stroke-opacity:1" id="path5125" d="m -50.390625,243.69365 4.157424,7.7442"/><path style="fill:#eee;fill-opacity:1;stroke:none;stroke-width:1px;stroke-linecap:butt;stroke-linejoin:miter;stroke-opacity:1" id="path5103" d="m 76.506491,376.01941 -20.315114,10.60971 253.447643,81.74023 21.48357,-11.71619 z"/><path style="fill:#999;fill-opacity:1;stroke:#222a31;stroke-width:7.55905485;stroke-linecap:round;stroke-linejoin:round;stroke-miterlimit:4;stroke-dasharray:none;stroke-opacity:1" id="path5079" d="M 186.45475,24.316041 165.53793,34.785678 52.563131,388.56602 74.780927,377.50029 Z"/><path style="fill:none;stroke:#222a31;stroke-width:7.55905485;stroke-linecap:round;stroke-linejoin:round;stroke-miterlimit:4;stroke-dasharray:none;stroke-opacity:1" id="path5085" d="M 53.235361,388.74114 317.30596,469.3329"/><path style="fill:#b3b3b3;fill-opacity:1;stroke:none;stroke-width:7.55905485;stroke-linecap:round;stroke-linejoin:round;stroke-miterlimit:4;stroke-dasharray:none;stroke-dashoffset:0;stroke-opacity:1;paint-order:markers fill stroke" id="path5097" d="m 129.69101,371.3401 c -1.42524,1.14123 -2.99518,2.16434 -4.31983,3.384 -1.42057,1.37985 -2.6141,2.90843 -3.80299,4.43636 -1.17856,1.53215 -2.33845,3.07566 -3.50155,4.61723 -1.16222,1.53814 -2.32574,3.07555 -3.49089,4.61191 -1.16464,1.53645 -2.32953,3.07278 -3.49452,4.60903 -0.87606,1.5675 -2.39107,2.6751 -3.94216,3.78048 -1.531,1.11423 -2.70358,2.48203 -3.84705,3.85968 -1.0536,1.49513 -2.23066,2.874 -3.836697,3.99458 -1.57807,1.02982 -2.79435,2.32259 -3.95017,3.64839 -1.236652,1.47038 -2.383277,2.99669 -3.536234,4.51862 -1.163212,1.53943 -2.326314,3.07898 -3.49097,4.61755 -1.163749,1.53754 -2.328982,3.07417 -3.494165,4.61082 -1.125767,1.51225 -2.308632,2.9903 -3.397772,4.52445 -0.126459,0.18649 -0.25256,0.37306 -0.378761,0.55966 0,0 -22.334793,-6.01547 -22.334793,-6.01547 v 0 c 0.151065,-0.18002 0.303093,-0.35942 0.454526,-0.5392 1.193142,-1.47732 2.296641,-3.0096 3.452767,-4.50959 1.165038,-1.53653 2.330094,-3.07306 3.494206,-4.61014 1.164771,-1.53844 2.329201,-3.07713 3.490908,-4.61744 1.158272,-1.53311 2.30952,-3.07067 3.516609,-4.57397 1.151539,-1.39822 2.325895,-2.79189 3.871138,-3.92328 1.56728,-1.07894 3.094428,-2.10529 3.922884,-3.6993 1.147531,-1.44143 2.30466,-2.88367 3.77037,-4.11577 1.429431,-1.11857 3.246085,-1.92869 4.031194,-3.49028 1.164983,-1.53616 2.329838,-3.07243 3.494513,-4.60877 1.164486,-1.53636 2.328753,-3.07288 3.49022,-4.61106 1.16619,-1.54349 2.3296,-3.08866 3.50429,-4.627 1.203007,-1.56164 2.407237,-3.12456 3.787057,-4.57483 1.20294,-1.21217 2.44595,-2.42204 4.09364,-3.30176 0,0 22.44348,6.04471 22.44348,6.04471 z"/><path style="fill:none;stroke:#eee;stroke-width:9.316535;stroke-linecap:butt;stroke-linejoin:miter;stroke-miterlimit:4;stroke-dasharray:none;stroke-opacity:1" id="path5105" d="m 85.884301,385.00548 26.545089,7.95728"/><rect style="fill:#45aeb5;fill-opacity:1;stroke:#222a31;stroke-width:7.55932426;stroke-linecap:round;stroke-linejoin:round;stroke-miterlimit:4;stroke-dasharray:none;stroke-dashoffset:0;stroke-opacity:1;paint-order:markers fill stroke" id="rect5073" width="274.7" height="370.981" x="185.056" y="-31.197" transform="matrix(0.95640909,0.29203024,-0.30341813,0.95285751,0,0)"/><text style="font-style:normal;font-weight:400;font-size:42.66666794px;line-height:1.25;font-family:sans-serif;letter-spacing:0;word-spacing:0;fill:#eee;fill-opacity:1;stroke:none;stroke-width:1" id="text5089" x="223.91" y="87.849" transform="matrix(0.95822209,0.29461626,-0.29639576,0.95246916,0,0)" xml:space="preserve"><tspan id="tspan5087" x="223.91" y="87.849" style="font-weight:700;font-size:64px;fill:#eee;fill-opacity:1;stroke-width:1">NOTE</tspan></text><path style="fill:none;stroke:#b3b3b3;stroke-width:16.20000076;stroke-linecap:butt;stroke-linejoin:round;stroke-miterlimit:4;stroke-dasharray:none;stroke-opacity:1" id="path5109" d="M -38.212231,238.1564 -184.36172,315.09427"/><path style="fill:none;fill-opacity:1;stroke:#999;stroke-width:14.10000038;stroke-linecap:round;stroke-linejoin:miter;stroke-miterlimit:4;stroke-dasharray:none;stroke-opacity:1;paint-order:stroke markers fill" id="path5117" d="m -36.240106,230.42887 2.230021,4.23144"/><path style="fill:none;stroke:#999;stroke-width:2;stroke-linecap:round;stroke-linejoin:miter;stroke-miterlimit:4;stroke-dasharray:none;stroke-opacity:1" id="path5121" d="m -33.128781,249.40766 -45.85022,24.06862"/><path style="fill:#b3b3b3;fill-opacity:1;stroke:#b3b3b3;stroke-width:1px;stroke-linecap:round;stroke-linejoin:round;stroke-opacity:1" id="path5129" d="m -180.76785,321.81993 -22.01668,2.72065 14.89085,-16.21889 z"/><path style="fill:none;fill-opacity:1;stroke:#999;stroke-width:6.9000001;stroke-linecap:butt;stroke-linejoin:miter;stroke-miterlimit:4;stroke-dasharray:none;stroke-opacity:1" id="path5145" d="m 403.32131,339.26327 13.5954,-7.63298"/><path id="path5147" d="m 397.36066,347.92039 5.97879,12.18139" style="fill:none;stroke:#999;stroke-width:4;stroke-linecap:butt;stroke-linejoin:miter;stroke-miterlimit:4;stroke-dasharray:none;stroke-opacity:1"/><path id="path5149" d="M 407.36294,337.03422 198.11368,454.84893" style="fill:none;stroke:#b3b3b3;stroke-width:17;stroke-linecap:butt;stroke-linejoin:round;stroke-miterlimit:4;stroke-dasharray:none;stroke-opacity:1"/><path id="path5151" d="m 417.71049,327.05534 3.20698,6.6559" style="fill:none;fill-opacity:1;stroke:#999;stroke-width:14.10000038;stroke-linecap:round;stroke-linejoin:miter;stroke-miterlimit:4;stroke-dasharray:none;stroke-opacity:1;paint-order:stroke markers fill"/><path id="path5153" d="m 414.64116,354.26324 -65.64598,36.85618" style="fill:none;stroke:#999;stroke-width:4;stroke-linecap:round;stroke-linejoin:miter;stroke-miterlimit:4;stroke-dasharray:none;stroke-opacity:1"/><path id="path5155" d="m 201.47348,461.10885 -21.15812,2.4918 14.31018,-14.85465 z" style="fill:#999;fill-opacity:1;stroke:#999;stroke-width:3;stroke-linecap:round;stroke-linejoin:round;stroke-miterlimit:4;stroke-dasharray:none;stroke-opacity:1"/><path style="fill:none;stroke:#eee;stroke-width:8.19999981;stroke-linecap:round;stroke-linejoin:miter;stroke-miterlimit:4;stroke-dasharray:none;stroke-opacity:1" id="path5176" d="m -421.09375,211.71875 h 182.8125"/><text style="font-style:normal;font-weight:400;font-size:40px;line-height:1.25;font-family:sans-serif;letter-spacing:0;word-spacing:0;fill:#000;fill-opacity:1;stroke:none" id="text5180" x="-236.055" y="219.397" xml:space="preserve"><tspan id="tspan5178" x="-236.055" y="219.397" style="fill:#eee;fill-opacity:1">✔</tspan></text><path id="path5182" d="m -421.09375,237.71875 h 182.8125" style="fill:none;stroke:#eee;stroke-width:8.19999981;stroke-linecap:round;stroke-linejoin:miter;stroke-miterlimit:4;stroke-dasharray:none;stroke-opacity:1"/><text id="text5186" x="-236.055" y="245.397" xml:space="preserve" style="font-style:normal;font-weight:400;font-size:40px;line-height:1.25;font-family:sans-serif;letter-spacing:0;word-spacing:0;fill:#000;fill-opacity:1;stroke:none"><tspan style="fill:#eee;fill-opacity:1" id="tspan5184" x="-236.055" y="245.397">✔</tspan></text><path id="path5188" d="m -421.09375,159.71875 h 182.8125" style="fill:none;stroke:#eee;stroke-width:8.19999981;stroke-linecap:round;stroke-linejoin:miter;stroke-miterlimit:4;stroke-dasharray:none;stroke-opacity:1"/><text id="text5192" x="-236.055" y="167.397" xml:space="preserve" style="font-style:normal;font-weight:400;font-size:40px;line-height:1.25;font-family:sans-serif;letter-spacing:0;word-spacing:0;fill:#000;fill-opacity:1;stroke:none"><tspan style="fill:#eee;fill-opacity:1" id="tspan5190" x="-236.055" y="167.397">✔</tspan></text><path style="fill:none;stroke:#eee;stroke-width:8.19999981;stroke-linecap:round;stroke-linejoin:miter;stroke-miterlimit:4;stroke-dasharray:none;stroke-opacity:1" id="path5194" d="m -421.09375,185.71875 h 182.8125"/><text style="font-style:normal;font-weight:400;font-size:40px;line-height:1.25;font-family:sans-serif;letter-spacing:0;word-spacing:0;fill:#000;fill-opacity:1;stroke:none" id="text5198" x="-236.055" y="193.397" xml:space="preserve"><tspan id="tspan5196" x="-236.055" y="193.397" style="fill:#eee;fill-opacity:1">✔</tspan></text><path id="path5224" d="M 148.59811,258.69959 323.2642,312.66406" style="fill:none;stroke:#eee;stroke-width:8.19999981;stroke-linecap:round;stroke-linejoin:miter;stroke-miterlimit:4;stroke-dasharray:none;stroke-opacity:1"/><text id="text5228" x="403.38" y="210.985" transform="rotate(17.168952)" xml:space="preserve" style="font-style:normal;font-weight:400;font-size:40px;line-height:1.25;font-family:sans-serif;letter-spacing:0;word-spacing:0;fill:#000;fill-opacity:1;stroke:none"><tspan style="fill:#eee;fill-opacity:1" id="tspan5226" x="403.38" y="210.985">✔</tspan></text><path style="fill:none;stroke:#eee;stroke-width:8.19999981;stroke-linecap:round;stroke-linejoin:miter;stroke-miterlimit:4;stroke-dasharray:none;stroke-opacity:1" id="path5230" d="m 140.92316,283.54098 174.66609,53.96449"/><text style="font-style:normal;font-weight:400;font-size:40px;line-height:1.25;font-family:sans-serif;letter-spacing:0;word-spacing:0;fill:#000;fill-opacity:1;stroke:none" id="text5234" x="403.38" y="236.985" transform="rotate(17.168952)" xml:space="preserve"><tspan id="tspan5232" x="403.38" y="236.985" style="fill:#eee;fill-opacity:1">✔</tspan></text><path style="fill:none;stroke:#eee;stroke-width:8.19999981;stroke-linecap:round;stroke-linejoin:miter;stroke-miterlimit:4;stroke-dasharray:none;stroke-opacity:1" id="path5236" d="m 163.94801,209.01678 174.66608,53.96449"/><text style="font-style:normal;font-weight:400;font-size:40px;line-height:1.25;font-family:sans-serif;letter-spacing:0;word-spacing:0;fill:#000;fill-opacity:1;stroke:none" id="text5240" x="403.38" y="158.985" transform="rotate(17.168952)" xml:space="preserve"><tspan id="tspan5238" x="403.38" y="158.985" style="fill:#eee;fill-opacity:1">✔</tspan></text><path id="path5242" d="m 156.27305,233.85819 174.66611,53.96448" style="fill:none;stroke:#eee;stroke-width:8.19999981;stroke-linecap:round;stroke-linejoin:miter;stroke-miterlimit:4;stroke-dasharray:none;stroke-opacity:1"/><text id="text5246" x="403.38" y="184.985" transform="rotate(17.168952)" xml:space="preserve" style="font-style:normal;font-weight:400;font-size:40px;line-height:1.25;font-family:sans-serif;letter-spacing:0;word-spacing:0;fill:#000;fill-opacity:1;stroke:none"><tspan style="fill:#eee;fill-opacity:1" id="tspan5244" x="403.38" y="184.985">✔</tspan></text></g></svg>