<svg xmlns="http://www.w3.org/2000/svg" xmlns:svg="http://www.w3.org/2000/svg" id="SVGRoot" width="500" height="500" version="1.1" viewBox="0 0 500 500"><defs id="defs10"><marker id="Arrow1Lend" orient="auto" refX="0" refY="0" style="overflow:visible"><path id="path4605" d="M 0.0,0.0 L 5.0,-5.0 L -12.5,0.0 L 5.0,5.0 L 0.0,0.0 z" transform="scale(0.8) rotate(180) translate(12.5,0)" style="fill-rule:evenodd;stroke:#4d4d4d;stroke-width:1pt;stroke-opacity:1;fill:#4d4d4d;fill-opacity:1"/></marker></defs><metadata id="metadata13"/><g id="layer1"><rect id="rect40" width="334.438" height="214.678" x="87.179" y="218.182" style="fill:#eee;fill-opacity:1;stroke:#222a31;stroke-width:4;stroke-linejoin:round;stroke-miterlimit:100;stroke-dasharray:none;stroke-opacity:1"/><path style="fill:#45aeb5;fill-opacity:1;stroke:#222a31;stroke-width:5.00000048;stroke-linecap:round;stroke-linejoin:round;stroke-miterlimit:100;stroke-dasharray:none;stroke-dashoffset:30;stroke-opacity:1;paint-order:stroke fill markers" id="path4568" d="M 96.942108,220.14789 A 36.738384,40.058193 0 0 1 78.484024,254.89508 36.738384,40.058193 0 0 1 41.657179,254.72693 36.738384,40.058193 0 0 1 23.466628,219.81241 l 36.737096,0.33548 z"/><path id="path4580" d="m 482.90232,219.93599 a 35.477119,40.530914 0 0 1 -17.8244,35.15724 35.477119,40.530914 0 0 1 -35.56254,-0.17013 35.477119,40.530914 0 0 1 -17.56605,-35.32655 l 35.47587,0.33944 z" style="fill:#45aeb5;fill-opacity:1;stroke:#222a31;stroke-width:5.00000095;stroke-linecap:round;stroke-linejoin:round;stroke-miterlimit:100;stroke-dasharray:none;stroke-dashoffset:30;stroke-opacity:1;paint-order:stroke fill markers"/><rect style="fill:#b3b3b3;stroke:#222a31;stroke-width:5.00000048;stroke-linecap:round;stroke-linejoin:round;stroke-miterlimit:100;stroke-dasharray:30.00000055,10.00000019;stroke-dashoffset:1.50000012;stroke-opacity:1;paint-order:stroke fill markers" id="rect4592" width="89.796" height="167.101" x="113.159" y="243.781"/><path id="path4572" d="m 175.65955,220.57974 a 36.836716,40.058193 0 0 1 -18.50749,34.74719 36.836716,40.058193 0 0 1 -36.92542,-0.16814 36.836716,40.058193 0 0 1 -18.23923,-34.91453 l 36.83542,0.33548 z" style="fill:#45aeb5;fill-opacity:1;stroke:#222a31;stroke-width:5.00000095;stroke-linecap:round;stroke-linejoin:round;stroke-miterlimit:100;stroke-dasharray:none;stroke-dashoffset:30;stroke-opacity:1;paint-order:stroke fill markers"/><rect id="rect4594" width="170.723" height="105.598" x="226.235" y="247.263" style="fill:#b3b3b3;stroke:#222a31;stroke-width:5.00000048;stroke-linecap:round;stroke-linejoin:round;stroke-miterlimit:100;stroke-dasharray:29.9999999,9.99999996;stroke-dashoffset:1.50000012;stroke-opacity:1;paint-order:stroke fill markers"/><path style="fill:#45aeb5;fill-opacity:1;stroke:#222a31;stroke-width:5.00000095;stroke-linecap:round;stroke-linejoin:round;stroke-miterlimit:100;stroke-dasharray:none;stroke-dashoffset:30;stroke-opacity:1;paint-order:stroke fill markers" id="path4574" d="m 253.07191,221.0116 a 36.148418,40.058193 0 0 1 -18.16167,34.74719 36.148418,40.058193 0 0 1 -36.23546,-0.16815 36.148418,40.058193 0 0 1 -17.89844,-34.91452 l 36.14715,0.33548 z"/><path id="path4576" d="m 330.39223,221.0116 a 36.050095,40.058193 0 0 1 -18.11228,34.74719 36.050095,40.058193 0 0 1 -36.1369,-0.16815 36.050095,40.058193 0 0 1 -17.84975,-34.91452 l 36.04883,0.33548 z" style="fill:#45aeb5;fill-opacity:1;stroke:#222a31;stroke-width:5.00000048;stroke-linecap:round;stroke-linejoin:round;stroke-miterlimit:100;stroke-dasharray:none;stroke-dashoffset:30;stroke-opacity:1;paint-order:stroke fill markers"/><path style="fill:#45aeb5;fill-opacity:1;stroke:#222a31;stroke-width:5.00000095;stroke-linecap:round;stroke-linejoin:round;stroke-miterlimit:100;stroke-dasharray:none;stroke-dashoffset:30;stroke-opacity:1;paint-order:stroke fill markers" id="path4578" d="m 407.39293,220.39618 a 36.148418,40.058193 0 0 1 -18.16168,34.74719 36.148418,40.058193 0 0 1 -36.23546,-0.16815 36.148418,40.058193 0 0 1 -17.89843,-34.91452 l 36.14715,0.33548 z"/><path style="fill:#45aeb5;fill-opacity:1;stroke:#45aeb5;stroke-width:3.0999999;stroke-linecap:round;stroke-linejoin:round;stroke-miterlimit:100;stroke-dasharray:none;stroke-opacity:1;paint-order:stroke fill markers" id="path4540" d="m 22.736878,218.5893 69.596763,-101.12117 320.145189,0.89488 70.6576,99.93888 z"/><path style="fill:none;stroke:#222a31;stroke-width:7;stroke-linecap:round;stroke-linejoin:round;stroke-miterlimit:4;stroke-dasharray:none;stroke-dashoffset:0;stroke-opacity:1" id="path4600-3" d="M 87.888364,109.55983 14.905358,215.32999"/><path id="path4899" d="M 415.69976,109.77577 88.958236,109.46549" style="fill:none;stroke:#222a31;stroke-width:7;stroke-linecap:round;stroke-linejoin:round;stroke-miterlimit:4;stroke-dasharray:none;stroke-dashoffset:0;stroke-opacity:1"/><rect style="fill:#222a31;fill-opacity:1;stroke:#222a31;stroke-width:5.00000048;stroke-linecap:round;stroke-linejoin:round;stroke-miterlimit:100;stroke-dasharray:none;stroke-dashoffset:30;stroke-opacity:1;paint-order:stroke fill markers" id="rect4562" width="219.429" height="113.267" x="145.542" y="41.442"/><text style="font-style:normal;font-weight:400;font-size:57.25609207px;line-height:1.25;font-family:sans-serif;letter-spacing:0;word-spacing:0;fill:#eee;fill-opacity:1;stroke:none;stroke-width:1.00000012;stroke-opacity:1" id="text4584" x="192.98" y="110.249" transform="scale(0.88896499,1.1249037)" xml:space="preserve"><tspan id="tspan4586" x="192.98" y="110.249" style="fill:#eee;fill-opacity:1;stroke:none;stroke-width:1.00000012;stroke-opacity:1">STORE</tspan></text><rect style="fill:none;stroke:#45aeb5;stroke-width:5.00000048;stroke-linecap:round;stroke-linejoin:round;stroke-miterlimit:100;stroke-dasharray:30.00000074,10.00000024;stroke-dashoffset:1.50000012;stroke-opacity:1;paint-order:stroke fill markers" id="rect4590" width="189.569" height="87.032" x="161.937" y="56.953"/><path style="fill:none;stroke:#222a31;stroke-width:3;stroke-linecap:round;stroke-linejoin:round;stroke-miterlimit:4;stroke-dasharray:none;stroke-dashoffset:0;stroke-opacity:1" id="path4600" d="M 483.77299,218.68831 22.363365,218.97572"/><path id="path4903" d="M 490.61497,214.91243 416.32992,110.1285" style="fill:none;stroke:#222a31;stroke-width:7;stroke-linecap:round;stroke-linejoin:round;stroke-miterlimit:4;stroke-dasharray:none;stroke-dashoffset:0;stroke-opacity:1"/><path style="fill:#ccc;fill-opacity:1;stroke:#222a31;stroke-width:13.00000095;stroke-linecap:round;stroke-linejoin:miter;stroke-miterlimit:4;stroke-dasharray:52.00000129,26.00000063,13.00000032,26.00000063;stroke-dashoffset:117;stroke-opacity:1" id="path4905" d="M 21.293478,432.72704 H 486.14243"/><ellipse style="fill:#222a31;fill-opacity:1;stroke:none;stroke-width:13.00000286;stroke-linecap:round;stroke-linejoin:round;stroke-miterlimit:4;stroke-dasharray:51.99999966,25.99999985,12.99999991,25.99999985;stroke-dashoffset:117;paint-order:stroke fill markers" id="path4909" cx="126.727" cy="329.134" rx="7.055" ry="7.18"/><path style="fill:none;stroke:#999;stroke-width:3.00000024;stroke-linecap:round;stroke-linejoin:round;stroke-miterlimit:4;stroke-dasharray:none;stroke-opacity:1" id="path4911" d="M 302.37906,266.53831 241.9596,312.13619"/><path id="path4913" d="m 356.6314,263.23317 -95.8306,71.49094" style="fill:none;stroke:#999;stroke-width:3.00000024;stroke-linecap:round;stroke-linejoin:round;stroke-miterlimit:4;stroke-dasharray:none;stroke-opacity:1"/><path style="fill:none;stroke:#999;stroke-width:3.00000024;stroke-linecap:round;stroke-linejoin:round;stroke-miterlimit:4;stroke-dasharray:none;stroke-opacity:1" id="path4915" d="m 376.15715,284.46466 -68.03998,54.62263"/></g></svg>